
 Henry.of.Navarre.aka.Henri.4.2010.DVDRip.x264.DTS(5.1).NORDIC_SUB.mkv-Zen_Bud 

Format                           : Matroska
File size                        : 2.07 GiB
Duration                         : 2h 28mn
Overall bit rate                 : 2 002 Kbps
Writing application              : HandBrake svn3586
Writing library                  : libmkv 0.6.4.1

Video

Format                           : AVC
Duration                         : 2h 28mn
Bit rate                         : 1 208 Kbps
Width                            : 720 pixels
Height                           : 436 pixels
Display aspect ratio             : 2.35:1
Stream size                      : 1.25 GiB (60%)
Writing library                  : x264 core 105
Language                         : French


Audio

Format                           : DTS
Duration                         : 2h 28mn
Bit rate                         : 755 Kbps
Channel(s)                       : 6 channels
Channel positions                : Front: L C R, Side: L R, LFE
Sampling rate                    : 48.0 KHz
Bit depth                        : 16 bits
Stream size                      : 801 MiB (38%)
Language                         : French

Text #1

Language                         : Swedish

Text #2
Language                         : Norwegian

Text #3
Language                         : Danish

Text #4
Language                         : Finnish

Menu
00:00:00.000                     : Chapter  1
00:05:06.720                     : Chapter  2

 
http://www.henri-vier.com/